<?xml version="1.0" encoding="utf-8"?>
<!-- Generator: Adobe Illustrator 26.3.1, SVG Export Plug-In . SVG Version: 6.00 Build 0)  -->
<svg version="1.1" id="Capa_1" xmlns="http://www.w3.org/2000/svg" xmlns:xlink="http://www.w3.org/1999/xlink" x="0px" y="0px"
	 viewBox="0 0 363.1 363.1" style="enable-background:new 0 0 363.1 363.1;" xml:space="preserve">
<style type="text/css">
	.st0{fill:#FFFFFF;}
</style>
<g>
	<g>
		<path class="st0" d="M334.7,28.6C316.4,10.3,291.8,0,265.7,0s-50.4,10-68.9,28.6l-54.4,54.1c-3,3-4.5,6.8-4.5,11s1.5,8,4.5,11
			c6,6,15.8,6,21.8,0l54.4-54.4c25.8-25.8,68.2-25.8,94,0c25.8,25.8,25.8,68.2,0,94l-54.4,54.4c-12.5,12.5-29.3,19.5-46.9,19.5
			c-17.8,0-34.3-7-46.9-19.5c-8.8-8.8-14.8-19.5-17.5-31.3c-1-4-3.5-7.5-7-9.5c-3.5-2.3-7.8-2.8-11.8-1.8c-4,1-7.5,3.5-9.5,7
			c-2.3,3.5-2.8,7.8-1.8,11.8c4.3,17.3,13,33.3,25.8,46.1c18.3,18.3,42.9,28.6,68.9,28.6s50.4-10,68.9-28.6l54.4-54.4
			c18.3-18.3,28.6-42.9,28.6-68.9C363.2,71.4,353,46.9,334.7,28.6z"/>
		<path class="st0" d="M198.6,258.6L144.2,313c-25.8,25.8-68.2,25.8-94,0c-25.8-25.8-25.8-68.2,0-94l54.4-54.4
			c25.8-25.8,68.2-25.8,94,0c8.8,8.8,14.8,19.5,17.5,31.3c1,4,3.5,7.5,7,9.5c3.5,2.3,7.8,2.8,11.8,1.8c4-1,7.5-3.5,9.5-7
			c2.3-3.5,2.8-7.8,1.8-11.8c-4.3-17.3-13-33.3-25.8-46.1c-18.3-18.3-42.9-28.6-68.9-28.6s-50.6,10-68.9,28.6l-54.4,54.4
			C9.9,215-0.4,239.6-0.4,265.6s10,50.4,28.6,68.9c18.3,18.3,42.9,28.6,68.9,28.6s50.6-10,68.9-28.6l54.4-54.4c6-6,6-15.8,0-21.8
			C214.4,252.3,204.6,252.3,198.6,258.6z"/>
	</g>
</g>
</svg>
