<?xml version="1.0" encoding="utf-8"?>
<!-- Generator: Adobe Illustrator 26.3.1, SVG Export Plug-In . SVG Version: 6.00 Build 0)  -->
<svg version="1.1" id="Capa_1" xmlns="http://www.w3.org/2000/svg" xmlns:xlink="http://www.w3.org/1999/xlink" x="0px" y="0px"
	 viewBox="0 0 292.12 412.97" style="enable-background:new 0 0 292.12 412.97;" xml:space="preserve">
<style type="text/css">
	.st0{fill:#1D1D1B;stroke:#1DBFB3;stroke-width:3;stroke-miterlimit:10;}
	.st1{fill:#1DBFB3;stroke:#1D1D1B;stroke-width:1.7741;stroke-linecap:round;stroke-linejoin:round;stroke-miterlimit:10;}
	.st2{fill:#1D1D1B;stroke:#1D1D1B;stroke-width:1.7741;stroke-linecap:round;stroke-linejoin:round;stroke-miterlimit:10;}
</style>
<g>
	<path class="st0" d="M278.86,399.81c0,5.57-4.52,10.09-10.09,10.09H23.34c-5.57,0-10.09-4.52-10.09-10.09V13.16
		c0-5.57,4.52-10.09,10.09-10.09h245.44c5.57,0,10.09,4.52,10.09,10.09V399.81z"/>
</g>
<g>
	<g>
		<path class="st1" d="M146.87,86.01c69.88,0,70.55,61.48,65.18,80.29c-5.38,18.81,1.51,24.52-2.02,37.63
			c-3.53,13.1-21.33,11.51-22.59,18.81c-1.26,7.31-2.52,13.86-14.11,16.38c-11.59,2.52-26.46,2.52-26.46,2.52"/>
		<path class="st2" d="M176.61,166.46c-14.66-1.33-22.65,6.37-19.84,19.25c2.81,12.88,32.57,19.54,36.42,1.04
			C197.04,168.23,176.61,166.46,176.61,166.46z"/>
		<path class="st1" d="M146.87,86.01c-69.88,0-70.55,61.48-65.18,80.29c5.38,18.81-1.51,24.52,2.02,37.63
			c3.53,13.1,21.33,11.51,22.59,18.81c1.26,7.31,2.52,13.86,14.11,16.38c11.59,2.52,26.46,2.52,26.46,2.52"/>
		<path class="st2" d="M117.12,166.46c14.66-1.33,22.65,6.37,19.84,19.25c-2.81,12.88-32.57,19.54-36.42,1.04
			C96.69,168.23,117.12,166.46,117.12,166.46z"/>
		<path class="st1" d="M155.53,219.75l-6.44-8.11c-0.98-1.23-3.47-1.23-4.45,0l-6.44,8.11"/>
	</g>
	<path class="st1" d="M198.56,298.27"/>
	<path class="st1" d="M198.56,298.27"/>
	<path class="st1" d="M93.56,298.27"/>
	<path class="st1" d="M158.75,267.35l32.21-15.48c-1.7-6.58,2.37-12.44,8.79-12.86c6.41-0.42,13.01,5.74,8.35,14.15
		c9.47,1.62,10.17,10.62,5.83,15.36c-4.34,4.74-11.45,4.26-15.53-1.18l-20.18,9.39"/>
	<path class="st1" d="M133.83,298.38l-32.7,15.71c1.7,6.58-2.34,12.42-8.76,12.85c-6.41,0.42-13.01-5.74-8.35-14.15
		c-9.47-1.62-10.17-10.62-5.83-15.36c4.34-4.74,11.43-4.25,15.51,1.19l20.09-9.65"/>
	<path class="st1" d="M93.72,267.35l97.27,46.73c-1.7,6.58,2.34,12.42,8.76,12.85c6.41,0.42,13.01-5.74,8.35-14.15
		c9.47-1.62,10.17-10.62,5.83-15.36c-4.34-4.74-11.43-4.25-15.51,1.19l-48.63-23.37l-48.63-23.37c1.7-6.58-2.37-12.44-8.79-12.86
		c-6.41-0.42-13.01,5.74-8.35,14.15c-9.47,1.62-10.17,10.62-5.83,15.36C82.53,273.27,89.64,272.79,93.72,267.35"/>
</g>
</svg>
