<?xml version="1.0" encoding="utf-8"?>
<!-- Generator: Adobe Illustrator 26.3.1, SVG Export Plug-In . SVG Version: 6.00 Build 0)  -->
<svg version="1.1" id="Capa_1" xmlns="http://www.w3.org/2000/svg" xmlns:xlink="http://www.w3.org/1999/xlink" x="0px" y="0px"
	 viewBox="0 0 363.1 363.1" style="enable-background:new 0 0 363.1 363.1;" xml:space="preserve">
<style type="text/css">
	.st0{fill:#1DBFB3;}
</style>
<g>
	<path class="st0" d="M353.9,173.3L16.4,24.8c-3.1-1.3-7-0.9-9.6,1.5c-2.6,2.2-3.7,5.9-2.8,9.2l39.9,146.1L4,327.7
		c-0.9,3.3,0.2,7,2.8,9.2c1.7,1.5,3.7,2.2,5.9,2.2c1.3,0,2.4-0.2,3.7-0.9l337.5-148.5c3.3-1.5,5.5-4.8,5.5-8.3
		C359.4,177.9,357.2,174.6,353.9,173.3z M26.7,314.1l33.8-123.6h101.2c5,0,8.9-4.1,8.9-8.9c0-5-4.1-8.9-8.9-8.9H60.5L26.7,49
		L328,181.6L26.7,314.1z"/>
</g>
</svg>
