<?xml version="1.0" encoding="utf-8"?>
<!-- Generator: Adobe Illustrator 26.3.1, SVG Export Plug-In . SVG Version: 6.00 Build 0)  -->
<svg version="1.1" id="Capa_1" xmlns="http://www.w3.org/2000/svg" xmlns:xlink="http://www.w3.org/1999/xlink" x="0px" y="0px"
	 viewBox="0 0 363.1 363.1" style="enable-background:new 0 0 363.1 363.1;" xml:space="preserve">
<style type="text/css">
	.st0{fill:#FFFFFF;}
</style>
<g>
	<g>
		<path class="st0" d="M319,128.2c0-22.1-17.8-39.9-39.9-39.9h-39.4c-6.5,0-11.8,5.3-11.8,11.8c0,6.5,5.3,11.8,11.8,11.8h39.4
			c9,0,16.3,7.3,16.3,16.3v195c0,9-7.3,16.3-16.3,16.3H84c-9,0-16.3-7.3-16.3-16.3v-195c0-9,7.3-16.3,16.3-16.3h39.7
			c6.5,0,11.8-5.3,11.8-11.8c0-6.5-5.3-11.8-11.8-11.8H84c-22.1,0-39.9,17.8-39.9,39.9v195c0,22.1,17.8,39.9,39.9,39.9h195
			c22.1,0,39.9-17.8,39.9-39.9V128.2z"/>
		<path class="st0" d="M132.2,70.7c3.3,0,6.3-1.3,8.5-3.5l27.9-27.9l0.3,149.6c0,3.3,1.3,6,3.5,8.3c2.3,2.3,5.3,3.5,8.3,3.5l0,0
			c3.3,0,6-1.3,8.3-3.5c2.3-2.3,3.5-5.3,3.5-8.3l-0.3-149.3L222.6,70c2.3,2.3,5,3.5,8.3,3.5c3,0,6-1.3,8.3-3.3
			c2.3-2.3,3.5-5,3.5-8.3c0-3.3-1.3-6.3-3.5-8.5L189.7,4c-5.3-5.3-13.8-5.3-19.1,0l-46.9,46.9c-2.3,2.3-3.5,5-3.5,8.3
			c0,3,1.3,6,3.3,8.3C126.2,69.5,129,70.7,132.2,70.7z"/>
	</g>
</g>
</svg>
