<?xml version="1.0" encoding="utf-8"?>
<!-- Generator: Adobe Illustrator 26.3.1, SVG Export Plug-In . SVG Version: 6.00 Build 0)  -->
<svg version="1.1" id="Capa_1" xmlns="http://www.w3.org/2000/svg" xmlns:xlink="http://www.w3.org/1999/xlink" x="0px" y="0px"
	 viewBox="0 0 292.12 412.97" style="enable-background:new 0 0 292.12 412.97;" xml:space="preserve">
<style type="text/css">
	.st0{fill:#1D1D1B;stroke:#1DBFB3;stroke-width:3;stroke-miterlimit:10;}
	.st1{fill:#1DBFB3;}
</style>
<g>
	<path class="st0" d="M278.86,399.81c0,5.57-4.52,10.09-10.09,10.09H23.34c-5.57,0-10.09-4.52-10.09-10.09V13.16
		c0-5.57,4.52-10.09,10.09-10.09h245.44c5.57,0,10.09,4.52,10.09,10.09v386.65H278.86z"/>
	<g>
		<path class="st1" d="M89.38,49.84c2-1.77,4.52-2.65,7.57-2.65c3.89,0,7.15,1.42,9.79,4.27c2.63,2.85,3.95,6.51,3.95,10.99
			c0,3.08-0.61,6.14-1.83,9.21c-1.22,3.06-3.45,6.86-6.68,11.4c-5.29,7.4-8.86,12.7-10.71,15.9c-1.85,3.2-3.67,7.05-5.45,11.56
			c-0.69,1.77-1.3,2.65-1.85,2.65h-0.53c-0.58,0-1.21-0.88-1.89-2.65c-1.78-4.6-3.62-8.51-5.51-11.74
			c-1.89-3.23-5.43-8.47-10.61-15.72c-3.26-4.54-5.49-8.34-6.7-11.4c-1.21-3.06-1.81-6.13-1.81-9.21c0-4.42,1.32-8.06,3.95-10.94
			c2.63-2.88,5.89-4.32,9.79-4.32c3.04,0,5.56,0.88,7.57,2.65c2,1.77,3.82,4.45,5.47,8.04C85.55,54.29,87.38,51.61,89.38,49.84z"/>
	</g>
	<g>
		<path class="st1" d="M213.11,49.84c2-1.77,4.52-2.65,7.57-2.65c3.89,0,7.15,1.42,9.79,4.27s3.95,6.51,3.95,10.99
			c0,3.08-0.61,6.14-1.83,9.21c-1.22,3.06-3.45,6.86-6.68,11.4c-5.29,7.4-8.86,12.7-10.71,15.9c-1.85,3.2-3.67,7.05-5.45,11.56
			c-0.69,1.77-1.3,2.65-1.85,2.65h-0.53c-0.58,0-1.21-0.88-1.89-2.65c-1.78-4.6-3.62-8.51-5.51-11.74
			c-1.89-3.23-5.43-8.47-10.61-15.72c-3.26-4.54-5.49-8.34-6.7-11.4c-1.21-3.06-1.81-6.13-1.81-9.21c0-4.42,1.32-8.06,3.95-10.94
			c2.63-2.88,5.89-4.32,9.79-4.32c3.04,0,5.56,0.88,7.57,2.65c2,1.77,3.82,4.45,5.47,8.04C209.27,54.29,211.11,51.61,213.11,49.84z"
			/>
	</g>
	<g>
		<path class="st1" d="M89.38,178.17c2-1.77,4.52-2.65,7.57-2.65c3.89,0,7.15,1.42,9.79,4.27c2.63,2.85,3.95,6.51,3.95,10.99
			c0,3.08-0.61,6.14-1.83,9.21c-1.22,3.06-3.45,6.86-6.68,11.4c-5.29,7.4-8.86,12.7-10.71,15.9s-3.67,7.05-5.45,11.56
			c-0.69,1.77-1.3,2.65-1.85,2.65h-0.53c-0.58,0-1.21-0.88-1.89-2.65c-1.78-4.6-3.62-8.51-5.51-11.74
			c-1.89-3.23-5.43-8.47-10.61-15.72c-3.26-4.54-5.49-8.34-6.7-11.4c-1.21-3.06-1.81-6.13-1.81-9.21c0-4.42,1.32-8.06,3.95-10.94
			s5.89-4.32,9.79-4.32c3.04,0,5.56,0.88,7.57,2.65c2,1.77,3.82,4.45,5.47,8.04C85.55,182.62,87.38,179.94,89.38,178.17z"/>
	</g>
	<g>
		<path class="st1" d="M213.11,178.17c2-1.77,4.52-2.65,7.57-2.65c3.89,0,7.15,1.42,9.79,4.27s3.95,6.51,3.95,10.99
			c0,3.08-0.61,6.14-1.83,9.21c-1.22,3.06-3.45,6.86-6.68,11.4c-5.29,7.4-8.86,12.7-10.71,15.9s-3.67,7.05-5.45,11.56
			c-0.69,1.77-1.3,2.65-1.85,2.65h-0.53c-0.58,0-1.21-0.88-1.89-2.65c-1.78-4.6-3.62-8.51-5.51-11.74
			c-1.89-3.23-5.43-8.47-10.61-15.72c-3.26-4.54-5.49-8.34-6.7-11.4c-1.21-3.06-1.81-6.13-1.81-9.21c0-4.42,1.32-8.06,3.95-10.94
			c2.63-2.88,5.89-4.32,9.79-4.32c3.04,0,5.56,0.88,7.57,2.65c2,1.77,3.82,4.45,5.47,8.04
			C209.27,182.62,211.11,179.94,213.11,178.17z"/>
	</g>
	<g>
		<path class="st1" d="M150.57,112.38c2-1.77,4.52-2.65,7.57-2.65c3.89,0,7.15,1.42,9.79,4.27c2.63,2.85,3.95,6.51,3.95,10.99
			c0,3.08-0.61,6.14-1.83,9.21c-1.22,3.06-3.45,6.86-6.68,11.4c-5.29,7.4-8.86,12.7-10.71,15.9s-3.67,7.05-5.45,11.56
			c-0.69,1.77-1.3,2.65-1.85,2.65h-0.53c-0.58,0-1.21-0.88-1.89-2.65c-1.78-4.6-3.62-8.51-5.51-11.74
			c-1.89-3.23-5.43-8.47-10.61-15.72c-3.26-4.54-5.49-8.34-6.7-11.4s-1.81-6.13-1.81-9.21c0-4.42,1.32-8.06,3.95-10.94
			c2.63-2.88,5.89-4.32,9.79-4.32c3.04,0,5.56,0.88,7.57,2.65c2,1.77,3.82,4.45,5.47,8.04
			C146.74,116.83,148.57,114.15,150.57,112.38z"/>
	</g>
	<g>
		<path class="st1" d="M83.2,359.3c-1.64,3.59-3.47,6.27-5.47,8.04c-2,1.77-4.52,2.65-7.57,2.65c-3.89,0-7.15-1.44-9.79-4.32
			c-2.63-2.88-3.95-6.53-3.95-10.94c0-3.08,0.6-6.14,1.81-9.21c1.21-3.06,3.44-6.86,6.7-11.4c5.18-7.25,8.72-12.49,10.61-15.72
			s3.73-7.14,5.51-11.74c0.68-1.77,1.31-2.65,1.89-2.65h0.53c0.55,0,1.16,0.88,1.85,2.65c1.78,4.51,3.6,8.36,5.45,11.56
			s5.42,8.5,10.71,15.9c3.23,4.54,5.46,8.34,6.68,11.4s1.83,6.13,1.83,9.21c0,4.48-1.31,8.14-3.95,10.99
			c-2.63,2.85-5.89,4.27-9.79,4.27c-3.04,0-5.56-0.88-7.57-2.65C86.71,365.57,84.87,362.89,83.2,359.3z"/>
	</g>
	<g>
		<path class="st1" d="M206.93,359.3c-1.64,3.59-3.47,6.27-5.47,8.04c-2,1.77-4.52,2.65-7.57,2.65c-3.89,0-7.15-1.44-9.79-4.32
			c-2.63-2.88-3.95-6.53-3.95-10.94c0-3.08,0.6-6.14,1.81-9.21c1.21-3.06,3.44-6.86,6.7-11.4c5.18-7.25,8.72-12.49,10.61-15.72
			s3.73-7.14,5.51-11.74c0.68-1.77,1.31-2.65,1.89-2.65h0.53c0.55,0,1.16,0.88,1.85,2.65c1.78,4.51,3.6,8.36,5.45,11.56
			c1.85,3.2,5.42,8.5,10.71,15.9c3.23,4.54,5.46,8.34,6.68,11.4c1.22,3.06,1.83,6.13,1.83,9.21c0,4.48-1.31,8.14-3.95,10.99
			c-2.63,2.85-5.89,4.27-9.79,4.27c-3.04,0-5.56-0.88-7.57-2.65C210.44,365.57,208.6,362.89,206.93,359.3z"/>
	</g>
	<path class="st1" d="M24.78,39.91h3.56V34.2h13.7c0,0-8.24,16.81-9.14,35.55h3.98c0,0,0.06-14.71,9.38-35.22v-4.29H24.78V39.91z"/>
	<g>
		<path class="st1" d="M35.53,80.43c0.77-1.68,1.62-2.93,2.56-3.76c0.94-0.83,2.11-1.24,3.54-1.24c1.82,0,3.34,0.67,4.57,2.02
			c1.23,1.34,1.85,3.05,1.85,5.11c0,1.44-0.28,2.87-0.84,4.3s-1.61,3.21-3.13,5.33c-2.42,3.39-4.07,5.84-4.96,7.34
			c-0.89,1.51-1.74,3.34-2.58,5.49c-0.32,0.83-0.61,1.24-0.88,1.24H35.4c-0.25,0-0.54-0.41-0.86-1.24c-0.83-2.11-1.68-3.91-2.55-5.4
			c-0.87-1.49-2.53-3.97-5.01-7.43c-1.51-2.12-2.55-3.9-3.12-5.33C23.29,85.43,23,84,23,82.56c0-2.09,0.61-3.8,1.85-5.14
			c1.23-1.33,2.75-2,4.57-2c1.42,0,2.6,0.41,3.54,1.24C33.89,77.49,34.75,78.75,35.53,80.43z"/>
	</g>
	<path class="st1" d="M264.47,375.99h-3.56v5.72h-13.7c0,0,8.24-16.81,9.14-35.55h-3.98c0,0-0.06,14.71-9.38,35.22v4.29h21.49v-9.68
		H264.47z"/>
	<g>
		<path class="st1" d="M253.72,335.48c-0.77,1.68-1.62,2.93-2.56,3.76c-0.94,0.83-2.11,1.24-3.54,1.24c-1.82,0-3.34-0.67-4.57-2.02
			c-1.23-1.34-1.85-3.05-1.85-5.11c0-1.44,0.28-2.87,0.84-4.3s1.61-3.21,3.13-5.33c2.42-3.39,4.07-5.84,4.96-7.34
			c0.89-1.51,1.74-3.34,2.58-5.49c0.32-0.83,0.61-1.24,0.88-1.24h0.25c0.25,0,0.54,0.41,0.86,1.24c0.83,2.11,1.68,3.91,2.55,5.4
			s2.53,3.97,5.01,7.43c1.51,2.12,2.55,3.9,3.12,5.33s0.85,2.86,0.85,4.3c0,2.09-0.61,3.8-1.85,5.14c-1.23,1.33-2.75,2-4.57,2
			c-1.42,0-2.6-0.41-3.54-1.24C255.35,338.41,254.5,337.16,253.72,335.48z"/>
	</g>
</g>
</svg>
